<?xml version="1.0" standalone="no"?><!DOCTYPE svg PUBLIC "-//W3C//DTD SVG 1.1//EN" "http://www.w3.org/Graphics/SVG/1.1/DTD/svg11.dtd"><svg t="1665895915302" class="icon" viewBox="0 0 1024 1024" version="1.1" xmlns="http://www.w3.org/2000/svg" p-id="2034" width="16" height="16" xmlns:xlink="http://www.w3.org/1999/xlink"><path d="M874.624 106.666667h-725.333333a42.666667 42.666667 0 0 0-42.666667 42.666666v725.333334a42.666667 42.666667 0 0 0 42.666667 42.666666h725.333333a42.666667 42.666667 0 0 0 42.666667-42.666666v-725.333334a42.666667 42.666667 0 0 0-42.666667-42.666666z m-110.933333 256l-341.333334 341.333333a32.597333 32.597333 0 0 1-21.333333 8.533333h-4.266667c-8.533333 0-17.066667-8.533333-25.6-17.066666l-110.933333-183.466667a31.488 31.488 0 1 1 55.466667-29.866667l89.6 145.066667 315.733333-311.466667a33.493333 33.493333 0 0 1 46.933333 0 58.709333 58.709333 0 0 1-4.266666 46.933334z" p-id="2035" fill="#d4237a"></path></svg>